<svg width="32" height="31" viewBox="0 0 32 31" fill="none" xmlns="http://www.w3.org/2000/svg">
<mask id="mask0_1782_6633" style="mask-type:alpha" maskUnits="userSpaceOnUse" x="0" y="0" width="32" height="31">
<rect x="0.5" width="31" height="31" fill="#D9D9D9"/>
</mask>
<g mask="url(#mask0_1782_6633)">
<path d="M16.0651 21.7964C16.3019 21.7964 16.501 21.7157 16.6625 21.5542C16.824 21.3928 16.9047 21.1936 16.9047 20.9568C16.9047 20.72 16.824 20.5209 16.6625 20.3594C16.501 20.198 16.3019 20.1173 16.0651 20.1173C15.8283 20.1173 15.6292 20.198 15.4677 20.3594C15.3063 20.5209 15.2255 20.72 15.2255 20.9568C15.2255 21.1936 15.3063 21.3928 15.4677 21.5542C15.6292 21.7157 15.8283 21.7964 16.0651 21.7964ZM15.5484 17.7277H16.4526C16.4957 17.211 16.6087 16.7858 16.7917 16.4521C16.9747 16.1185 17.3137 15.7041 17.8089 15.2089C18.3901 14.6277 18.8153 14.1164 19.0844 13.6751C19.3535 13.2337 19.488 12.7332 19.488 12.1735C19.488 11.2048 19.1543 10.4244 18.487 9.83236C17.8196 9.24034 17.0339 8.94434 16.1297 8.94434C15.2901 8.94434 14.5635 9.17576 13.95 9.63861C13.3365 10.1015 12.879 10.6235 12.5776 11.2048L13.4818 11.5923C13.7186 11.0971 14.0307 10.6827 14.4182 10.349C14.8057 10.0153 15.3547 9.8485 16.0651 9.8485C16.9477 9.8485 17.5882 10.0907 17.9865 10.5751C18.3847 11.0594 18.5839 11.5923 18.5839 12.1735C18.5839 12.6256 18.4655 13.0239 18.2286 13.3683C17.9918 13.7127 17.6797 14.0679 17.2922 14.4339C16.6033 15.0798 16.1405 15.6502 15.9036 16.1454C15.6668 16.6405 15.5484 17.1679 15.5484 17.7277ZM7.99219 25.4454C7.43247 25.4454 6.96962 25.2624 6.60365 24.8964C6.23767 24.5304 6.05469 24.0676 6.05469 23.5079V7.49121C6.05469 6.93149 6.23767 6.46864 6.60365 6.10267C6.96962 5.7367 7.43247 5.55371 7.99219 5.55371H24.0089C24.5686 5.55371 25.0314 5.7367 25.3974 6.10267C25.7634 6.46864 25.9464 6.93149 25.9464 7.49121V23.5079C25.9464 24.0676 25.7634 24.5304 25.3974 24.8964C25.0314 25.2624 24.5686 25.4454 24.0089 25.4454H7.99219ZM7.99219 24.5412H24.0089C24.2672 24.5412 24.504 24.4336 24.7193 24.2183C24.9345 24.003 25.0422 23.7662 25.0422 23.5079V7.49121C25.0422 7.23288 24.9345 6.99607 24.7193 6.78079C24.504 6.56552 24.2672 6.45788 24.0089 6.45788H7.99219C7.73385 6.45788 7.49705 6.56552 7.28177 6.78079C7.06649 6.99607 6.95885 7.23288 6.95885 7.49121V23.5079C6.95885 23.7662 7.06649 24.003 7.28177 24.2183C7.49705 24.4336 7.73385 24.5412 7.99219 24.5412Z" fill="#1C1B1F"/>
</g>
</svg>
