<svg width="32" height="31" viewBox="0 0 32 31" fill="none" xmlns="http://www.w3.org/2000/svg">
<mask id="mask0_1782_6618" style="mask-type:alpha" maskUnits="userSpaceOnUse" x="0" y="0" width="32" height="31">
<rect x="0.5" width="31" height="31" fill="#D9D9D9"/>
</mask>
<g mask="url(#mask0_1782_6618)">
<path d="M8.63672 22.7335C9.73464 21.9585 10.881 21.345 12.0758 20.8929C13.2706 20.4408 14.5784 20.2148 15.9992 20.2148C17.4201 20.2148 18.7279 20.4408 19.9227 20.8929C21.1174 21.345 22.2638 21.9585 23.3617 22.7335C24.2444 21.8509 24.9602 20.796 25.5091 19.5689C26.0581 18.3419 26.3326 16.9856 26.3326 15.5002C26.3326 12.637 25.3261 10.199 23.3133 8.18613C21.3004 6.17329 18.8624 5.16686 15.9992 5.16686C13.136 5.16686 10.698 6.17329 8.68516 8.18613C6.67231 10.199 5.66589 12.637 5.66589 15.5002C5.66589 16.9856 5.94036 18.3419 6.48932 19.5689C7.03828 20.796 7.75408 21.8509 8.63672 22.7335ZM16.0002 15.9523C14.9662 15.9523 14.094 15.5974 13.3836 14.8876C12.6732 14.1779 12.318 13.306 12.318 12.272C12.318 11.238 12.6729 10.3658 13.3826 9.6554C14.0924 8.94499 14.9643 8.58978 15.9983 8.58978C17.0322 8.58978 17.9044 8.94466 18.6148 9.65443C19.3253 10.3642 19.6805 11.2361 19.6805 12.2701C19.6805 13.304 19.3256 14.1762 18.6158 14.8867C17.906 15.5971 17.0342 15.9523 16.0002 15.9523ZM15.9992 26.7377C14.4277 26.7377 12.9584 26.4471 11.5914 25.8658C10.2244 25.2846 9.03498 24.488 8.02318 23.4762C7.01137 22.4644 6.21484 21.275 5.63359 19.908C5.05234 18.541 4.76172 17.0717 4.76172 15.5002C4.76172 13.9287 5.05234 12.4594 5.63359 11.0924C6.21484 9.72537 7.01137 8.53596 8.02318 7.52415C9.03498 6.51235 10.2244 5.71582 11.5914 5.13457C12.9584 4.55332 14.4277 4.2627 15.9992 4.2627C17.5707 4.2627 19.04 4.55332 20.407 5.13457C21.774 5.71582 22.9635 6.51235 23.9753 7.52415C24.9871 8.53596 25.7836 9.72537 26.3648 11.0924C26.9461 12.4594 27.2367 13.9287 27.2367 15.5002C27.2367 17.0717 26.9461 18.541 26.3648 19.908C25.7836 21.275 24.9871 22.4644 23.9753 23.4762C22.9635 24.488 21.774 25.2846 20.407 25.8658C19.04 26.4471 17.5707 26.7377 15.9992 26.7377ZM15.9992 25.8335C17.2048 25.8335 18.4049 25.6129 19.5997 25.1716C20.7945 24.7302 21.8117 24.1328 22.6513 23.3794C21.8117 22.6905 20.8268 22.1415 19.6966 21.7325C18.5664 21.3235 17.3339 21.1189 15.9992 21.1189C14.6645 21.1189 13.4267 21.3181 12.2857 21.7163C11.1447 22.1146 10.1652 22.6689 9.34714 23.3794C10.1867 24.1328 11.2039 24.7302 12.3987 25.1716C13.5935 25.6129 14.7937 25.8335 15.9992 25.8335ZM15.9992 15.0481C16.7742 15.0481 17.4308 14.779 17.969 14.2408C18.5072 13.7026 18.7763 13.046 18.7763 12.271C18.7763 11.496 18.5072 10.8394 17.969 10.3012C17.4308 9.76304 16.7742 9.49395 15.9992 9.49395C15.2242 9.49395 14.5676 9.76304 14.0294 10.3012C13.4912 10.8394 13.2221 11.496 13.2221 12.271C13.2221 13.046 13.4912 13.7026 14.0294 14.2408C14.5676 14.779 15.2242 15.0481 15.9992 15.0481Z" fill="#1C1B1F"/>
</g>
</svg>
