<svg width="32" height="31" viewBox="0 0 32 31" fill="none" xmlns="http://www.w3.org/2000/svg">
<mask id="mask0_1782_6636" style="mask-type:alpha" maskUnits="userSpaceOnUse" x="0" y="0" width="32" height="31">
<rect x="0.5" width="31" height="31" fill="#D9D9D9"/>
</mask>
<g mask="url(#mask0_1782_6636)">
<path d="M14.7092 16.4044C14.9676 16.4044 15.1829 16.3129 15.3551 16.1299C15.5273 15.947 15.6134 15.7371 15.6134 15.5003C15.6134 15.2419 15.5273 15.0267 15.3551 14.8544C15.1829 14.6822 14.9676 14.5961 14.7092 14.5961C14.4724 14.5961 14.2625 14.6822 14.0796 14.8544C13.8966 15.0267 13.8051 15.2419 13.8051 15.5003C13.8051 15.7371 13.8966 15.947 14.0796 16.1299C14.2625 16.3129 14.4724 16.4044 14.7092 16.4044ZM9.54258 25.4461V24.5419L18.9717 23.7669V8.17005C18.9717 7.63186 18.7941 7.16901 18.4389 6.78151C18.0837 6.39401 17.6478 6.17873 17.1311 6.13568L10.5759 5.61901V4.71484L17.228 5.23151C17.9815 5.29609 18.6112 5.60825 19.1171 6.16797C19.623 6.72769 19.8759 7.38429 19.8759 8.13776V24.6065L9.54258 25.4461ZM6.83008 25.4461V24.5419H8.63841V6.65234C8.63841 6.09262 8.82678 5.62977 9.20352 5.2638C9.58025 4.89783 10.0377 4.71484 10.5759 4.71484H21.4259C21.9856 4.71484 22.4485 4.89783 22.8145 5.2638C23.1804 5.62977 23.3634 6.09262 23.3634 6.65234V24.5419H25.1717V25.4461H6.83008ZM9.54258 24.5419H22.4592V6.65234C22.4592 6.35095 22.3624 6.10339 22.1686 5.90964C21.9749 5.71589 21.7273 5.61901 21.4259 5.61901H10.5759C10.2745 5.61901 10.027 5.71589 9.8332 5.90964C9.63945 6.10339 9.54258 6.35095 9.54258 6.65234V24.5419Z" fill="#1C1B1F"/>
</g>
</svg>
