<svg width="32" height="31" viewBox="0 0 32 31" fill="none" xmlns="http://www.w3.org/2000/svg">
<mask id="mask0_1782_6621" style="mask-type:alpha" maskUnits="userSpaceOnUse" x="0" y="0" width="32" height="31">
<rect x="0.5" width="31" height="31" fill="#D9D9D9"/>
</mask>
<g mask="url(#mask0_1782_6621)">
<path d="M7.34635 25.4457C6.99115 25.4457 6.68707 25.3192 6.43411 25.0663C6.18116 24.8133 6.05469 24.5092 6.05469 24.154C6.05469 23.7988 6.18116 23.4947 6.43411 23.2418C6.68707 22.9888 6.99115 22.8624 7.34635 22.8624C7.70156 22.8624 8.00564 22.9888 8.25859 23.2418C8.51155 23.4947 8.63802 23.7988 8.63802 24.154C8.63802 24.5092 8.51155 24.8133 8.25859 25.0663C8.00564 25.3192 7.70156 25.4457 7.34635 25.4457ZM23.363 25.4457C23.363 23.0346 22.9098 20.7833 22.0032 18.6919C21.0965 16.6007 19.8601 14.7721 18.2942 13.2062C16.7283 11.6403 14.8996 10.4039 12.8082 9.49717C10.7167 8.59064 8.46558 8.13737 6.05469 8.13737V6.8457C8.63802 6.8457 11.0545 7.33546 13.3042 8.31497C15.5538 9.29449 17.5182 10.6238 19.1974 12.303C20.8766 13.9822 22.2059 15.9444 23.1854 18.1898C24.1649 20.4349 24.6547 22.8535 24.6547 25.4457H23.363ZM16.388 25.4457C16.388 24.0033 16.1189 22.6632 15.5807 21.4254C15.0425 20.1875 14.2998 19.095 13.3526 18.1478C12.4054 17.2006 11.3128 16.4579 10.075 15.9197C8.83715 15.3815 7.49705 15.1124 6.05469 15.1124V13.8207C7.66927 13.8207 9.17987 14.123 10.5865 14.7275C11.9931 15.332 13.2273 16.1599 14.2891 17.2113C15.3405 18.2705 16.1684 19.5017 16.7729 20.9048C17.3774 22.3082 17.6797 23.8219 17.6797 25.4457H16.388Z" fill="#1C1B1F"/>
</g>
</svg>
